<?xml version="1.0" encoding="UTF-8"?> <!-- Generator: Adobe Illustrator 23.1.1, SVG Export Plug-In . SVG Version: 6.00 Build 0) --> <svg xmlns="http://www.w3.org/2000/svg" xmlns:xlink="http://www.w3.org/1999/xlink" id="Layer_1" x="0px" y="0px" viewBox="0 0 120 40" style="enable-background:new 0 0 120 40;" xml:space="preserve"> <style type="text/css"> .st0{fill:#D52228;} .st1{fill:#A0C7DA;} .st2{fill:#EB008B;} .st3{fill:#C40380;} .st4{fill:#FFDD15;} .st5{fill:#ADAF2F;} .st6{fill:#231F20;} </style> <g> <polygon class="st0" points="2.72,1.07 2.72,12.13 18.58,12.13 18.58,38.93 29.65,38.93 29.65,12.13 24.12,12.13 24.12,1.07 "></polygon> <rect x="40.75" y="1.07" class="st1" width="5.53" height="5.53"></rect> <rect x="24.12" y="1.07" class="st2" width="5.53" height="5.53"></rect> <rect x="29.65" y="6.6" class="st0" width="5.53" height="5.53"></rect> <rect x="24.11" y="9.36" class="st3" width="2.77" height="2.77"></rect> <rect x="32.66" y="1.07" class="st4" width="2.77" height="2.77"></rect> <rect x="37.98" y="6.6" class="st5" width="2.77" height="2.77"></rect> <g> <g> <path class="st0" d="M54.77,11.42h3.31v8.45h2.33v-8.45h3.3v-2h-8.93V11.42z M106.25,9.41h-8.93v2h3.31v8.45h2.33v-8.45h3.29 V9.41z M83.35,9.41l-2.7,4.23l-2.71-4.23h-2.65l4.19,6.55v3.9h2.33v-3.9l4.19-6.55H83.35z M69.7,9.06 c-3.05,0-5.52,2.47-5.52,5.52c0,3.05,2.47,5.52,5.52,5.52c3.05,0,5.52-2.47,5.52-5.52C75.22,11.53,72.75,9.06,69.7,9.06 M69.7,18.05c-1.72,0-3.11-1.55-3.11-3.47c0-1.92,1.4-3.47,3.11-3.47c1.72,0,3.12,1.56,3.12,3.47 C72.82,16.49,71.43,18.05,69.7,18.05 M91.49,9.06c-3.05,0-5.52,2.47-5.52,5.52c0,3.05,2.47,5.52,5.52,5.52 c3.05,0,5.52-2.47,5.52-5.52C97.01,11.53,94.53,9.06,91.49,9.06 M91.49,18.05c-1.72,0-3.12-1.55-3.12-3.47 c0-1.92,1.39-3.47,3.12-3.47c1.72,0,3.12,1.56,3.12,3.47C94.6,16.49,93.2,18.05,91.49,18.05 M113.01,9.41h-3.05l-4.27,10.45h2.64 l0.97-2.55h4.35l0.97,2.55h2.64L113.01,9.41z M110.02,15.46l1.47-3.85l1.47,3.85H110.02z"></path> <g> <path class="st6" d="M94.32,33.27c-1.95,0-3.54-1.62-3.54-3.62s1.59-3.62,3.54-3.62c1.04,0,2.03,0.47,2.7,1.28l-0.57,0.47 c-0.53-0.65-1.31-1.02-2.13-1.02c-1.55,0-2.8,1.29-2.8,2.88c0,1.59,1.26,2.88,2.8,2.88c0.82,0,1.6-0.37,2.13-1.01l0.57,0.47 C96.35,32.8,95.36,33.27,94.32,33.27z M57.94,33.27c-1.95,0-3.54-1.62-3.54-3.62s1.59-3.62,3.54-3.62c1.04,0,2.03,0.47,2.7,1.28 l-0.57,0.47c-0.53-0.65-1.31-1.02-2.13-1.02c-1.54,0-2.8,1.29-2.8,2.88c0,1.59,1.26,2.88,2.8,2.88c0.82,0,1.6-0.37,2.13-1.01 l0.57,0.47C59.96,32.8,58.98,33.27,57.94,33.27z M113.47,33.27c-1.95,0-3.54-1.62-3.54-3.62s1.59-3.62,3.54-3.62 c1.05,0,1.94,0.46,2.6,1.32V24.3h0.74v8.6h-0.74v-0.95C115.41,32.81,114.52,33.27,113.47,33.27z M113.47,26.77 c-1.55,0-2.8,1.29-2.8,2.88c0,1.59,1.26,2.88,2.8,2.88c1.48,0,2.23-1.14,2.6-2.12v-1.52C115.69,27.91,114.94,26.77,113.47,26.77 z M105.95,33.27c-1.86,0-3.37-1.62-3.37-3.62c0-2,1.51-3.62,3.37-3.62c1.96,0,3.17,1.71,3.17,3.3v0.37h-5.8 c0.03,1.56,1.2,2.83,2.63,2.83c0.77,0,1.5-0.37,2-1.01l0.58,0.46C107.88,32.8,106.94,33.27,105.95,33.27z M103.39,28.96h4.96 c-0.16-1.11-1.05-2.19-2.4-2.19C104.71,26.77,103.67,27.7,103.39,28.96z M100.64,33.27c-1.15,0-2.09-0.95-2.09-2.13v-4.23h-0.91 v-0.74h0.91V24.3h0.74v1.87h2.33v0.74h-2.33v4.23c0,0.77,0.6,1.39,1.35,1.39c0.39,0,0.76-0.18,1.02-0.49l0.57,0.47 C101.83,32.99,101.25,33.27,100.64,33.27z M86.89,33.27c-1.86,0-3.38-1.62-3.38-3.62c0-2,1.51-3.62,3.38-3.62 c1.96,0,3.17,1.71,3.17,3.3v0.37h-5.8c0.03,1.56,1.2,2.83,2.64,2.83c0.77,0,1.5-0.37,2-1.01l0.58,0.46 C88.83,32.8,87.89,33.27,86.89,33.27z M84.33,28.96h4.96c-0.16-1.11-1.05-2.19-2.4-2.19C85.66,26.77,84.62,27.7,84.33,28.96z M64.5,33.27c-1.95,0-3.54-1.62-3.54-3.62s1.59-3.62,3.54-3.62c1.95,0,3.54,1.62,3.54,3.62S66.45,33.27,64.5,33.27z M64.5,26.77 c-1.55,0-2.8,1.29-2.8,2.88c0,1.59,1.26,2.88,2.8,2.88c1.54,0,2.8-1.29,2.8-2.88C67.3,28.06,66.05,26.77,64.5,26.77z M82.79,32.9h-0.74v-3.25c0-1.59-1.11-2.88-2.49-2.88c-1.37,0-2.48,1.29-2.48,2.88v3.25h-0.74v-3.25c0-2,1.45-3.62,3.22-3.62 c1.78,0,3.22,1.62,3.22,3.62V32.9z M75.35,32.9h-0.74v-3.25c0-1.59-1.11-2.88-2.49-2.88c-1.37,0-2.48,1.29-2.48,2.88v3.25H68.9 v-3.25c0-2,1.45-3.62,3.22-3.62c1.78,0,3.23,1.62,3.23,3.62V32.9z"></path> </g> </g> </g> </g> </svg> 